<svg xmlns="http://www.w3.org/2000/svg" xmlns:xlink="http://www.w3.org/1999/xlink" width="500" zoomAndPan="magnify" viewBox="0 0 375 374.999991" height="500" preserveAspectRatio="xMidYMid meet" version="1.0"><defs><clipPath id="30cd64fdc9"><path d="M 27.066406 0.0195312 L 349.015625 0.0195312 L 349.015625 294.589844 L 27.066406 294.589844 Z M 27.066406 0.0195312 " clip-rule="nonzero"/></clipPath><clipPath id="b3c6148c5e"><path d="M 231.417969 361.152344 L 248.324219 361.152344 L 248.324219 374.996094 L 231.417969 374.996094 Z M 231.417969 361.152344 " clip-rule="nonzero"/></clipPath><clipPath id="205ce010f1"><path d="M 231.417969 365.199219 L 248.324219 365.199219 L 248.324219 374.996094 L 231.417969 374.996094 Z M 231.417969 365.199219 " clip-rule="nonzero"/></clipPath></defs><g clip-path="url(#30cd64fdc9)"><path fill="#e6e6e6" d="M 347.683594 144.996094 C 344.410156 155.246094 333.46875 163.296875 322.992188 160.886719 C 333.558594 164.164062 340.707031 171.46875 342.328125 181.765625 C 343.726562 190.664062 334.449219 203.445312 323.328125 203.070312 C 314.332031 202.765625 304.5625 198.050781 301.183594 192.238281 C 301.292969 192.636719 301.398438 193.039062 301.488281 193.441406 C 302.863281 199.171875 302.601562 205.125 300.160156 210.089844 C 297.542969 215.40625 289.6875 218.511719 283.804688 217.839844 C 279.90625 217.394531 271.75 213.949219 271.75 213.949219 C 271.75 213.949219 266.097656 218.089844 262.996094 219.667969 C 251.199219 225.671875 236.238281 222.425781 225.710938 214.398438 C 215.179688 206.367188 208.421875 194.351562 203.429688 182.082031 C 207.390625 193.117188 209.164062 206.109375 202.925781 216.035156 C 196.6875 225.964844 179.890625 228.953125 173.574219 219.078125 C 176.53125 225.203125 176.023438 232.875 172.277344 238.554688 C 169.914062 242.148438 165.953125 246.414062 162.183594 248.480469 C 147.535156 256.511719 129.78125 256.421875 119.0625 242.796875 C 115.476562 238.234375 113.820312 235.070312 113.820312 235.070312 C 116.105469 251.425781 111.546875 269.042969 100.066406 280.914062 C 88.585938 292.777344 69.960938 297.863281 54.652344 291.679688 C 39.34375 285.5 29.285156 267.441406 33.773438 251.542969 C 34.96875 247.304688 38.125 239.078125 38.125 239.078125 C 38.125 239.078125 32.398438 235.25 30.933594 233.542969 C 25.859375 227.632812 25.765625 218.035156 30.734375 212.027344 C 32.246094 210.199219 36.328125 207.125 36.328125 207.125 C 36.328125 207.125 36.300781 205.957031 36.285156 204.40625 C 36.273438 202.378906 36.28125 199.695312 36.414062 198.082031 C 37.167969 188.816406 43.925781 180.324219 52.78125 177.507812 C 54.628906 176.925781 60.808594 175.578125 60.808594 175.578125 C 60.808594 175.578125 55.679688 171.460938 52.703125 166.714844 C 46.234375 156.40625 44.292969 145.214844 46.84375 135.257812 C 48.703125 127.992188 54.320312 121.894531 61.78125 117.722656 L 61.785156 117.722656 C 70.34375 112.9375 81.335938 110.671875 91.882812 112.054688 C 81.039062 106.371094 69.773438 96.929688 63.847656 83.425781 C 63.839844 83.414062 63.835938 83.398438 63.828125 83.386719 C 63.816406 83.359375 63.808594 83.34375 63.808594 83.34375 C 60.789062 76.445312 59.167969 68.484375 59.703125 59.429688 C 60.152344 51.851562 62.871094 40.847656 66.574219 34.222656 C 71.648438 25.148438 77.925781 15.570312 86.613281 9.855469 C 102.890625 -0.851562 124 -2.625 141.488281 3.601562 C 158.984375 9.832031 167.949219 23.75 171.589844 41.96875 C 173.824219 35.511719 177.222656 27.496094 189.167969 29.675781 C 193.71875 30.507812 197.769531 33.414062 199.363281 37.757812 C 200.960938 42.101562 200.707031 46.878906 200.429688 51.5 C 211.519531 34.242188 238.785156 30.539062 254.070312 44.214844 C 269.355469 57.886719 268.722656 85.40625 252.820312 98.363281 C 262.429688 99.882812 268.558594 112.09375 264.039062 120.714844 C 270.402344 109.398438 277.792969 103.550781 287.65625 98.527344 C 297.519531 93.507812 312 93.371094 322.410156 97.121094 C 330.761719 100.125 337.46875 106.699219 342.171875 114.226562 C 347.875 123.34375 350.949219 134.75 347.683594 144.996094 " fill-opacity="1" fill-rule="nonzero"/></g><path fill="#e6e6e6" d="M 235 277.457031 C 229.910156 281.703125 223.285156 283.628906 216.769531 284.839844 C 215.617188 285.054688 214.460938 285.25 213.300781 285.429688 C 211.996094 285.625 210.6875 285.800781 209.375 285.953125 C 205.484375 286.402344 201.570312 286.640625 197.65625 286.664062 C 196.902344 286.667969 196.140625 286.664062 195.382812 286.644531 C 193.339844 286.582031 191.292969 286.390625 189.339844 285.898438 C 187.996094 285.554688 186.699219 285.074219 185.480469 284.390625 C 179.78125 281.199219 175.285156 275.273438 174.644531 268.773438 C 174.125 263.476562 176.496094 255.21875 179.621094 250.910156 C 179.992188 250.398438 180.492188 249.800781 181.085938 249.15625 C 183.808594 246.175781 188.4375 242.144531 190.960938 240.714844 C 201.1875 234.917969 208.621094 234.21875 220.316406 235.414062 C 229.980469 236.402344 235.796875 241.625 238.9375 245.570312 C 239.269531 245.988281 239.574219 246.390625 239.847656 246.777344 C 248.851562 259.34375 244.476562 269.554688 235 277.457031 " fill-opacity="1" fill-rule="nonzero"/><path fill="#e6e6e6" d="M 215.320312 300.714844 C 215.308594 300.734375 215.296875 300.757812 215.28125 300.777344 C 214.859375 301.375 214.390625 301.933594 213.875 302.441406 C 212.472656 303.820312 210.789062 304.863281 208.976562 305.632812 C 207.605469 306.21875 206.164062 306.648438 204.710938 306.953125 C 201.148438 307.703125 197.359375 307.761719 193.917969 306.632812 C 193.40625 306.472656 192.90625 306.277344 192.414062 306.0625 C 188.601562 304.359375 185.464844 300.84375 184.90625 296.699219 C 184.390625 292.894531 186.097656 288.988281 188.867188 286.332031 C 189.019531 286.183594 189.179688 286.039062 189.339844 285.898438 C 190.496094 284.882812 191.800781 284.054688 193.195312 283.394531 C 195.066406 282.496094 197.09375 281.898438 199.128906 281.507812 C 199.832031 281.375 200.496094 281.273438 201.121094 281.195312 C 201.355469 281.164062 201.578125 281.140625 201.804688 281.117188 L 201.808594 281.117188 C 202.859375 281.015625 203.808594 280.992188 204.664062 281.03125 C 208.503906 281.203125 210.515625 282.640625 211.949219 284.003906 C 212.425781 284.457031 212.882812 284.933594 213.300781 285.429688 C 215.191406 287.617188 216.542969 290.171875 217.125 293.046875 C 217.660156 295.695312 216.875 298.472656 215.320312 300.714844 " fill-opacity="1" fill-rule="nonzero"/><path fill="#e6e6e6" d="M 229.410156 312.164062 C 229.984375 315.246094 229.785156 318.558594 228.671875 321.472656 C 228.019531 323.195312 227.042969 324.777344 225.726562 326.089844 C 225.28125 326.527344 224.804688 326.929688 224.308594 327.292969 C 221.984375 328.996094 219.105469 329.929688 216.226562 330.265625 C 215.449219 330.355469 214.675781 330.40625 213.898438 330.417969 C 211.164062 330.484375 208.414062 330.148438 205.695312 329.753906 C 202.722656 329.324219 199.664062 328.789062 197.128906 327.171875 C 192.667969 324.328125 190.722656 318.558594 191.203125 313.285156 C 191.382812 311.335938 191.867188 309.363281 193.003906 307.773438 C 193.289062 307.375 193.59375 306.992188 193.917969 306.632812 C 196.097656 304.1875 199.132812 302.558594 202.332031 301.660156 C 202.984375 301.472656 203.644531 301.320312 204.300781 301.195312 C 207.226562 300.644531 210.183594 300.351562 213.089844 300.507812 C 213.835938 300.546875 214.582031 300.613281 215.320312 300.714844 C 215.5 300.742188 215.679688 300.769531 215.863281 300.796875 C 218.039062 301.144531 220.167969 301.777344 222.226562 302.792969 C 226.246094 304.769531 228.824219 309.039062 229.410156 312.164062 " fill-opacity="1" fill-rule="nonzero"/><path fill="#e6e6e6" d="M 238.015625 342.640625 C 236.988281 343.730469 235.441406 344.125 233.972656 344.390625 C 229.085938 345.28125 223.785156 345.230469 219.480469 342.757812 C 215.242188 340.324219 212.398438 335.042969 213.898438 330.417969 C 213.921875 330.34375 213.949219 330.269531 213.972656 330.195312 C 214.261719 329.378906 214.835938 328.390625 215.558594 327.40625 C 216.898438 325.566406 218.742188 323.738281 220.203125 323.074219 C 222.503906 322.039062 225.726562 321.410156 228.671875 321.472656 C 231.285156 321.523438 233.683594 322.125 235.03125 323.457031 C 236.652344 325.0625 236.734375 327.792969 236.195312 330.015625 C 235.898438 331.234375 235.320312 332.492188 235.6875 333.695312 C 235.769531 333.945312 235.882812 334.179688 236.023438 334.394531 C 236.492188 335.136719 237.253906 335.710938 237.839844 336.390625 C 239.328125 338.125 239.585938 340.980469 238.015625 342.640625 " fill-opacity="1" fill-rule="nonzero"/><g clip-path="url(#b3c6148c5e)"><path fill="#e6e6e6" d="M 247.957031 366.847656 C 248.03125 367.3125 248.046875 367.769531 248.011719 368.226562 C 247.75 371.390625 244.859375 374.210938 240.9375 374.859375 C 236.453125 375.601562 232.328125 373.214844 231.71875 369.527344 C 231.484375 368.085938 231.816406 366.664062 232.582031 365.417969 C 233.769531 363.476562 236 361.964844 238.734375 361.515625 C 243.222656 360.773438 247.347656 363.160156 247.957031 366.847656 " fill-opacity="1" fill-rule="nonzero"/></g><path fill="#e6e6e6" d="M 179.988281 301.390625 C 180.394531 303.855469 180.242188 306.308594 179.609375 308.664062 C 177.292969 317.332031 168.480469 324.722656 157.011719 326.613281 C 142.425781 329.019531 129.058594 321.628906 127.160156 310.109375 C 126.289062 304.820312 127.984375 299.582031 131.484375 295.226562 C 135.609375 290.09375 142.242188 286.191406 150.132812 284.886719 C 164.722656 282.480469 178.085938 289.871094 179.988281 301.390625 " fill-opacity="1" fill-rule="nonzero"/><g clip-path="url(#205ce010f1)"><path fill="#b2b2b2" d="M 248.011719 368.226562 C 247.75 371.390625 244.859375 374.210938 240.9375 374.859375 C 236.453125 375.601562 232.328125 373.214844 231.71875 369.527344 C 231.484375 368.085938 231.816406 366.664062 232.582031 365.417969 C 232.839844 366.066406 233.207031 366.613281 233.84375 366.921875 C 235.523438 367.738281 237.671875 366.074219 239.332031 366.929688 C 240.085938 367.316406 240.527344 368.136719 241.226562 368.609375 C 242.078125 369.183594 243.1875 369.171875 244.207031 369.0625 C 245.5 368.917969 246.773438 368.636719 248.011719 368.226562 " fill-opacity="1" fill-rule="nonzero"/></g><path fill="#b2b2b2" d="M 175.804688 308.714844 C 177.070312 308.800781 178.359375 308.820312 179.609375 308.664062 C 177.292969 317.332031 168.480469 324.722656 157.011719 326.613281 C 142.425781 329.019531 129.058594 321.628906 127.160156 310.109375 C 126.289062 304.820312 127.984375 299.582031 131.484375 295.226562 C 132.289062 298.652344 133.632812 301.890625 136.082031 304.351562 C 138.4375 306.710938 141.582031 308.089844 144.714844 309.214844 C 147.65625 310.273438 150.691406 311.15625 153.8125 311.304688 C 155.511719 311.386719 157.246094 311.238281 158.816406 310.585938 C 161.777344 309.34375 163.703125 306.5 165.453125 303.808594 C 167.472656 307.238281 171.839844 308.4375 175.804688 308.714844 " fill-opacity="1" fill-rule="nonzero"/><path fill="#e6e6e6" d="M 308.660156 243.671875 C 307.683594 248.808594 303.5 253.507812 297.511719 255.457031 C 289.242188 258.148438 280.667969 254.574219 278.363281 247.476562 C 278.269531 247.203125 278.191406 246.929688 278.125 246.652344 C 276.429688 239.777344 281.199219 232.335938 289.152344 229.75 C 297.421875 227.058594 305.996094 230.628906 308.304688 237.730469 C 308.941406 239.6875 309.035156 241.710938 308.660156 243.671875 " fill-opacity="1" fill-rule="nonzero"/><path fill="#b2b2b2" d="M 308.660156 243.671875 C 307.683594 248.808594 303.5 253.507812 297.511719 255.457031 C 289.242188 258.148438 280.667969 254.574219 278.363281 247.476562 C 278.269531 247.203125 278.191406 246.929688 278.125 246.652344 C 278.316406 246.695312 278.511719 246.726562 278.703125 246.746094 C 281.339844 247.042969 283.9375 245.648438 285.746094 243.707031 C 287.550781 241.761719 288.703125 239.316406 289.824219 236.910156 C 290.222656 237.875 289.96875 238.96875 289.988281 240.011719 C 290.007812 241.054688 290.542969 242.285156 291.582031 242.375 C 292.082031 242.417969 292.597656 242.175781 293.078125 242.324219 C 294.207031 242.675781 293.800781 244.394531 294.308594 245.460938 C 294.957031 246.835938 296.898438 246.769531 298.394531 246.496094 C 300.03125 246.195312 301.667969 245.890625 303.304688 245.59375 C 304.730469 245.328125 306.179688 245.058594 307.476562 244.402344 C 307.898438 244.191406 308.289062 243.945312 308.660156 243.671875 " fill-opacity="1" fill-rule="nonzero"/><path fill="#b2b2b2" d="M 238.015625 342.640625 C 236.988281 343.730469 235.441406 344.125 233.972656 344.390625 C 229.085938 345.28125 223.785156 345.230469 219.480469 342.757812 C 215.242188 340.324219 212.398438 335.042969 213.898438 330.417969 C 211.164062 330.484375 208.414062 330.148438 205.695312 329.753906 C 202.722656 329.324219 199.664062 328.789062 197.128906 327.171875 C 192.667969 324.328125 190.722656 318.558594 191.203125 313.285156 C 191.382812 311.335938 191.867188 309.363281 193.003906 307.773438 C 193.289062 307.375 193.59375 306.992188 193.917969 306.632812 C 193.40625 306.472656 192.90625 306.277344 192.414062 306.0625 C 188.601562 304.359375 185.464844 300.84375 184.90625 296.699219 C 184.390625 292.894531 186.097656 288.988281 188.867188 286.332031 C 189.019531 286.183594 189.179688 286.039062 189.339844 285.898438 C 187.996094 285.554688 186.699219 285.074219 185.480469 284.390625 C 179.78125 281.199219 175.285156 275.273438 174.644531 268.773438 C 174.125 263.476562 176.496094 255.21875 179.621094 250.910156 C 179.992188 250.398438 180.492188 249.800781 181.085938 249.15625 C 180.785156 253.085938 180.371094 257.011719 180.601562 260.941406 C 180.953125 266.949219 183.171875 273.320312 188.25 276.550781 C 189.507812 277.347656 190.957031 277.984375 191.785156 279.226562 C 192.597656 280.449219 192.648438 282.050781 193.195312 283.394531 C 193.34375 283.753906 193.523438 284.09375 193.765625 284.40625 C 194.277344 285.0625 195.039062 285.554688 195.308594 286.34375 C 195.34375 286.441406 195.367188 286.542969 195.382812 286.644531 C 195.5 287.328125 194.363281 288.613281 194.078125 289.265625 C 192.578125 292.730469 193.867188 298.160156 196.480469 300.792969 C 197.695312 302.015625 199.621094 302.839844 201.269531 303.363281 C 203.152344 303.972656 207.226562 303.710938 209.152344 303.25 C 209.101562 304.53125 209.386719 305.8125 209.941406 306.96875 C 210.542969 308.210938 212.929688 310.453125 214.074219 311.222656 C 209.464844 309.335938 204.035156 312.335938 203.394531 316.265625 C 202.75 320.191406 205.851562 324.542969 209.832031 324.574219 C 210.753906 324.582031 211.714844 324.386719 212.5625 324.742188 C 213.566406 325.160156 214.117188 326.222656 214.929688 326.945312 C 215.132812 327.125 215.339844 327.28125 215.558594 327.40625 C 218.121094 328.984375 221.757812 327.476562 224.519531 325.894531 C 224.410156 326.351562 224.339844 326.820312 224.308594 327.292969 C 224.058594 330.871094 226.042969 334.652344 229.417969 335.839844 C 231.65625 336.625 234.261719 335.925781 236.023438 334.394531 C 236.492188 335.136719 237.253906 335.710938 237.839844 336.390625 C 239.328125 338.125 239.585938 340.980469 238.015625 342.640625 " fill-opacity="1" fill-rule="nonzero"/><path fill="#b2b2b2" d="M 235 277.457031 C 229.910156 281.703125 223.285156 283.628906 216.769531 284.839844 C 215.617188 285.054688 214.460938 285.25 213.300781 285.429688 C 215.191406 287.617188 216.542969 290.171875 217.125 293.046875 C 217.660156 295.695312 216.875 298.472656 215.320312 300.714844 C 215.5 300.742188 215.679688 300.769531 215.863281 300.796875 C 215.667969 300.792969 215.472656 300.789062 215.28125 300.777344 C 214.546875 300.738281 213.816406 300.648438 213.089844 300.507812 C 212.710938 300.4375 212.335938 300.347656 211.957031 300.246094 C 213.390625 296.132812 213.222656 291.867188 210.984375 288.132812 C 210.515625 287.355469 209.976562 286.625 209.375 285.953125 C 207.222656 283.542969 204.289062 281.832031 201.121094 281.195312 C 200.910156 281.152344 200.695312 281.113281 200.484375 281.082031 C 200.90625 281.101562 201.351562 281.113281 201.804688 281.117188 L 201.808594 281.117188 C 202.742188 281.132812 203.722656 281.109375 204.664062 281.03125 C 206.003906 280.925781 207.265625 280.710938 208.21875 280.328125 C 212.546875 278.601562 215.195312 277.519531 218.53125 274.265625 C 221.867188 271.011719 221.402344 265.058594 219.671875 260.730469 C 224.765625 263.09375 233.601562 261.40625 237.339844 257.214844 C 240.339844 253.863281 240.003906 249.609375 238.9375 245.570312 C 239.269531 245.988281 239.574219 246.390625 239.847656 246.777344 C 248.851562 259.34375 244.476562 269.554688 235 277.457031 " fill-opacity="1" fill-rule="nonzero"/><path fill="#b2b2b2" d="M 318.320312 160.824219 C 305.625 161.921875 298.234375 172.902344 299.597656 184.414062 C 299.96875 187.59375 300.597656 190.609375 301.488281 193.441406 C 302.863281 199.171875 302.601562 205.125 300.160156 210.089844 C 297.542969 215.40625 289.6875 218.511719 283.804688 217.839844 C 279.90625 217.394531 271.75 213.949219 271.75 213.949219 C 271.75 213.949219 266.097656 218.089844 262.996094 219.667969 C 251.199219 225.671875 236.238281 222.425781 225.710938 214.398438 C 215.179688 206.367188 208.421875 194.351562 203.429688 182.082031 C 207.390625 193.117188 209.164062 206.109375 202.925781 216.035156 C 196.6875 225.964844 179.890625 228.953125 173.574219 219.078125 C 176.53125 225.203125 176.023438 232.875 172.277344 238.554688 C 169.914062 242.148438 165.953125 246.414062 162.183594 248.480469 C 147.535156 256.511719 129.78125 256.421875 119.0625 242.796875 C 115.476562 238.234375 113.820312 235.070312 113.820312 235.070312 C 116.105469 251.425781 111.546875 269.042969 100.066406 280.914062 C 88.585938 292.777344 69.960938 297.863281 54.652344 291.679688 C 39.34375 285.5 29.285156 267.441406 33.773438 251.542969 C 34.96875 247.304688 38.125 239.078125 38.125 239.078125 C 38.125 239.078125 32.398438 235.25 30.933594 233.542969 C 25.859375 227.632812 25.765625 218.035156 30.734375 212.027344 C 32.246094 210.199219 36.328125 207.125 36.328125 207.125 C 36.328125 207.125 36.300781 205.957031 36.285156 204.40625 C 41.792969 209.984375 48.085938 214.972656 55.699219 216.304688 C 64.746094 217.882812 75.601562 211.75 75.578125 202.566406 C 86.332031 208.410156 100.488281 207.253906 110.144531 199.738281 C 119.796875 192.226562 124.40625 178.777344 121.386719 166.917969 C 124.8125 179.554688 141.644531 186.3125 152.851562 179.546875 C 160.464844 183.851562 170.917969 179.921875 175.527344 172.484375 C 180.136719 165.046875 179.703125 155.320312 176.425781 147.207031 C 173.144531 139.09375 167.371094 132.273438 161.519531 125.769531 C 169.652344 123.085938 175.945312 115.488281 177.066406 106.996094 C 178.195312 98.503906 174.097656 89.527344 166.941406 84.816406 C 179.816406 85.769531 192.914062 78.265625 198.613281 66.675781 C 197.195312 76.359375 201.253906 86.65625 208.894531 92.765625 C 216.539062 98.875 228.050781 103.703125 238.09375 101.359375 C 229.257812 103.21875 224.800781 104.886719 221.058594 110.144531 C 217.320312 115.402344 217.089844 120.988281 219.074219 127.128906 C 221.058594 133.269531 227.441406 139.160156 233.621094 137.304688 C 226.570312 145.628906 228.625 159.269531 236.355469 166.964844 C 244.089844 174.660156 255.941406 177.019531 266.746094 175.535156 C 279.757812 173.75 293.160156 165.085938 294.914062 152.066406 C 295.09375 156.84375 299.484375 160.609375 304.136719 161.691406 C 308.792969 162.777344 312.972656 160.152344 318.320312 160.824219 " fill-opacity="1" fill-rule="nonzero"/><path fill="#b2b2b2" d="M 63.828125 83.386719 C 63.816406 83.359375 63.808594 83.34375 63.808594 83.34375 C 63.8125 83.359375 63.820312 83.375 63.828125 83.386719 " fill-opacity="1" fill-rule="nonzero"/><path fill="#b2b2b2" d="M 116.128906 149.554688 C 113.824219 137.066406 99.875 103.722656 61.785156 117.722656 C 70.34375 112.9375 81.335938 110.671875 91.882812 112.054688 C 81.039062 106.371094 69.773438 96.929688 63.847656 83.425781 C 64.605469 85.113281 94.191406 120.457031 136.132812 123.945312 C 136.132812 123.945312 110.78125 125.707031 116.128906 149.554688 " fill-opacity="1" fill-rule="nonzero"/><path fill="#b2b2b2" d="M 115.449219 146.929688 C 115.925781 148.570312 116.128906 149.554688 116.128906 149.554688 C 115.878906 148.667969 115.65625 147.792969 115.449219 146.929688 " fill-opacity="1" fill-rule="nonzero"/></svg>